<svg xmlns="http://www.w3.org/2000/svg" width="200.764" height="243.166" viewBox="0 0 200.764 243.166"><defs><style>.a,.c{fill:#5f8bfa;}.a{font-size:64px;font-family:aAcornSquash, a Acorn Squash;}.b{stroke:#fff;stroke-miterlimit:10;stroke-width:0.5px;}</style></defs><g transform="translate(0 179.166)"><text class="a" transform="translate(101.764 42)"><tspan x="0" y="0">isette</tspan></text><g transform="translate(0 2.713)"><path d="M2485.435,878.547a11.832,11.832,0,0,1-2.281,7.519,8.22,8.22,0,0,1-4.363,2.985,11.886,11.886,0,0,1-3.524.47,9.978,9.978,0,0,1-6.176-1.845,10.3,10.3,0,0,1-3.239-4.112,16.6,16.6,0,0,1-1.394-5.956l6.042-.437a9.188,9.188,0,0,0,1.946,5.331,3.248,3.248,0,0,0,2.619,1.181,3.938,3.938,0,0,0,3.323-2.049,5.09,5.09,0,0,0,.638-2.79,7.741,7.741,0,0,0-2.382-5.205q-1.882-1.78-5.64-5.343a24.082,24.082,0,0,1-4.463-5.475,12.677,12.677,0,0,1-1.41-5.913q0-5.745,3.86-8.7a9.587,9.587,0,0,1,5.907-1.781,10.75,10.75,0,0,1,5.806,1.511,8.73,8.73,0,0,1,3.037,3.29,12.176,12.176,0,0,1,1.394,4.867l-6.076,1.108a7.334,7.334,0,0,0-1.476-4.029,3.1,3.1,0,0,0-2.518-1.04,2.9,2.9,0,0,0-2.651,1.544,5.947,5.947,0,0,0-.738,3.088,9.265,9.265,0,0,0,2.483,5.874,20.838,20.838,0,0,0,2.819,2.685q2.217,1.845,2.921,2.584a21.586,21.586,0,0,1,3.624,4.632,17.752,17.752,0,0,1,.973,1.981A11.484,11.484,0,0,1,2485.435,878.547Z" transform="translate(-2464.458 -846.425)"/><path d="M2489.532,889.526a10.029,10.029,0,0,1-10.071-10.035V856.533a10.053,10.053,0,1,1,20.106,0v4.8h-6.578V856.4a3.666,3.666,0,0,0-3.66-3.658,3.47,3.47,0,0,0-2.567,1.073,3.552,3.552,0,0,0-1.058,2.584v23.026a3.612,3.612,0,0,0,3.625,3.625,3.55,3.55,0,0,0,2.585-1.058,3.469,3.469,0,0,0,1.074-2.567v-5.806h6.578v5.873a10.025,10.025,0,0,1-10.036,10.035Z" transform="translate(-2453.316 -846.396)"/><path d="M2501.226,879.123l-1.54,9.666h-6.606l7.152-42.055h8.725L2516,888.789h-6.669l-1.486-9.666Zm3.334-22.756-2.349,16.581h4.7Z" transform="translate(-2443.204 -846.195)"/><path d="M2516.42,846.715,2524.838,875V846.715h6.344V888.8h-6.813l-8.727-26.951V888.8H2509.3V846.715Z" transform="translate(-2431.161 -846.21)"/></g></g><g transform="translate(74.591 19.952)"><path class="b" d="M2552.448,753.5h-37.239a3.288,3.288,0,0,0-3.29,3.29l0,29.294h-1.363a3.29,3.29,0,0,0-3.292,3.29v55.532a26.749,26.749,0,0,0,7.781,18.781,26.558,26.558,0,0,0,37.566,0l0,0a26.75,26.75,0,0,0,7.78-18.781V789.375a3.289,3.289,0,0,0-3.29-3.29h-1.364V756.791a3.29,3.29,0,0,0-3.292-3.29Zm1.364,91.406a20.114,20.114,0,0,1-5.854,14.125l0,0a19.985,19.985,0,0,1-28.259,0,20.114,20.114,0,0,1-5.851-14.125v-52.24h39.966v52.24Zm-4.655-58.822H2518.5v-26h30.657v26Zm0,0" transform="translate(-2507.263 -753.501)"/><path class="b" d="M2517.529,775.464V761.1h6.338v14.359Zm0,0" transform="translate(-2499.64 -747.854)"/><path class="b" d="M2523.837,775.463V761.1h6.338v14.359Zm0,0" transform="translate(-2494.956 -747.855)"/><path class="b" d="M2525.313,802.366a6.583,6.583,0,1,1-6.583,6.583,6.582,6.582,0,0,1,6.583-6.583" transform="translate(-2498.748 -717.215)"/></g><g transform="translate(22.383)"><path d="M2482.531,753.616a6.343,6.343,0,0,1,6.336-6.338h20.986v-5.228h-20.986a11.578,11.578,0,0,0-11.564,11.565V774.6h5.228Z" transform="translate(-2477.303 -742.051)"/><path d="M2570.018,747.279a6.345,6.345,0,0,1,6.34,6.338V774.6h5.228V753.616a11.579,11.579,0,0,0-11.568-11.565h-20.984v5.228Z" transform="translate(-2424.038 -742.051)"/><path d="M2488.867,841.105a6.345,6.345,0,0,1-6.336-6.339V813.782H2477.3v20.984a11.579,11.579,0,0,0,11.564,11.567h20.986v-5.228Z" transform="translate(-2477.303 -688.786)"/><path d="M2576.358,834.766a6.347,6.347,0,0,1-6.34,6.339h-20.984v5.228h20.984a11.581,11.581,0,0,0,11.568-11.567V813.782h-5.228Z" transform="translate(-2424.038 -688.786)"/></g><rect class="c" width="144.142" height="5.187" rx="1.488" transform="translate(29.085 78.938)"/></svg>